<mxfile host="app.diagrams.net" modified="2023-11-13T07:33:11.261Z" agent="Mozilla/5.0 (Macintosh; Intel Mac OS X 10.15; rv:109.0) Gecko/20100101 Firefox/119.0" etag="wN6I3JsfjvmTmfqyzQah" version="22.1.0" type="github">
  <diagram id="C5RBs43oDa-KdzZeNtuy" name="Page-1">
    <mxGraphModel dx="984" dy="661" grid="1" gridSize="10" guides="1" tooltips="1" connect="1" arrows="1" fold="1" page="1" pageScale="1" pageWidth="827" pageHeight="1169" math="0" shadow="0">
      <root>
        <mxCell id="WIyWlLk6GJQsqaUBKTNV-0" />
        <mxCell id="WIyWlLk6GJQsqaUBKTNV-1" parent="WIyWlLk6GJQsqaUBKTNV-0" />
        <mxCell id="M7sf1WBETRBUM8MKy9Nu-1" value="Commercial activity?" style="rhombus;whiteSpace=wrap;html=1;" vertex="1" parent="WIyWlLk6GJQsqaUBKTNV-1">
          <mxGeometry x="330" y="320" width="140" height="140" as="geometry" />
        </mxCell>
        <mxCell id="M7sf1WBETRBUM8MKy9Nu-7" value="" style="edgeStyle=orthogonalEdgeStyle;rounded=0;orthogonalLoop=1;jettySize=auto;html=1;" edge="1" parent="WIyWlLk6GJQsqaUBKTNV-1" source="M7sf1WBETRBUM8MKy9Nu-2" target="M7sf1WBETRBUM8MKy9Nu-6">
          <mxGeometry relative="1" as="geometry" />
        </mxCell>
        <mxCell id="M7sf1WBETRBUM8MKy9Nu-2" value="Start" style="ellipse;whiteSpace=wrap;html=1;aspect=fixed;fontStyle=1" vertex="1" parent="WIyWlLk6GJQsqaUBKTNV-1">
          <mxGeometry x="60" y="159" width="80" height="80" as="geometry" />
        </mxCell>
        <mxCell id="M7sf1WBETRBUM8MKy9Nu-9" value="Yes" style="edgeStyle=orthogonalEdgeStyle;rounded=0;orthogonalLoop=1;jettySize=auto;html=1;" edge="1" parent="WIyWlLk6GJQsqaUBKTNV-1" source="M7sf1WBETRBUM8MKy9Nu-3" target="M7sf1WBETRBUM8MKy9Nu-4">
          <mxGeometry x="-0.2889" relative="1" as="geometry">
            <mxPoint as="offset" />
          </mxGeometry>
        </mxCell>
        <mxCell id="M7sf1WBETRBUM8MKy9Nu-28" value="&lt;div&gt;No, this is only a&lt;br&gt;contribution to software&lt;br&gt;not under my responsibility&lt;br&gt;&lt;/div&gt;" style="edgeStyle=orthogonalEdgeStyle;rounded=0;orthogonalLoop=1;jettySize=auto;html=1;entryX=1;entryY=0.5;entryDx=0;entryDy=0;" edge="1" parent="WIyWlLk6GJQsqaUBKTNV-1" source="M7sf1WBETRBUM8MKy9Nu-3" target="M7sf1WBETRBUM8MKy9Nu-26">
          <mxGeometry x="-0.9513" relative="1" as="geometry">
            <Array as="points">
              <mxPoint x="479" y="40" />
              <mxPoint x="800" y="40" />
              <mxPoint x="800" y="750" />
            </Array>
            <mxPoint as="offset" />
          </mxGeometry>
        </mxCell>
        <mxCell id="M7sf1WBETRBUM8MKy9Nu-3" value="Are you making a&lt;br&gt;product available on the market?" style="rhombus;whiteSpace=wrap;html=1;fontSize=12;" vertex="1" parent="WIyWlLk6GJQsqaUBKTNV-1">
          <mxGeometry x="404" y="124" width="150" height="150" as="geometry" />
        </mxCell>
        <mxCell id="M7sf1WBETRBUM8MKy9Nu-4" value="Are you solely&lt;br&gt;hosting or packaging on an open platform?" style="rhombus;whiteSpace=wrap;html=1;" vertex="1" parent="WIyWlLk6GJQsqaUBKTNV-1">
          <mxGeometry x="599" y="129" width="140" height="140" as="geometry" />
        </mxCell>
        <mxCell id="M7sf1WBETRBUM8MKy9Nu-5" value="Find some other flow chart" style="rounded=0;whiteSpace=wrap;html=1;" vertex="1" parent="WIyWlLk6GJQsqaUBKTNV-1">
          <mxGeometry x="230" y="10" width="120" height="60" as="geometry" />
        </mxCell>
        <mxCell id="M7sf1WBETRBUM8MKy9Nu-8" value="Yes" style="edgeStyle=orthogonalEdgeStyle;rounded=0;orthogonalLoop=1;jettySize=auto;html=1;" edge="1" parent="WIyWlLk6GJQsqaUBKTNV-1" source="M7sf1WBETRBUM8MKy9Nu-6" target="M7sf1WBETRBUM8MKy9Nu-3">
          <mxGeometry relative="1" as="geometry" />
        </mxCell>
        <mxCell id="M7sf1WBETRBUM8MKy9Nu-10" value="No" style="edgeStyle=orthogonalEdgeStyle;rounded=0;orthogonalLoop=1;jettySize=auto;html=1;" edge="1" parent="WIyWlLk6GJQsqaUBKTNV-1" source="M7sf1WBETRBUM8MKy9Nu-6" target="M7sf1WBETRBUM8MKy9Nu-5">
          <mxGeometry relative="1" as="geometry" />
        </mxCell>
        <mxCell id="M7sf1WBETRBUM8MKy9Nu-6" value="Does your activity&lt;br&gt;concern free and open source software?" style="rhombus;whiteSpace=wrap;html=1;fontSize=12;" vertex="1" parent="WIyWlLk6GJQsqaUBKTNV-1">
          <mxGeometry x="215" y="124" width="150" height="150" as="geometry" />
        </mxCell>
        <mxCell id="M7sf1WBETRBUM8MKy9Nu-12" value="No" style="endArrow=classic;html=1;rounded=0;entryX=0.5;entryY=0;entryDx=0;entryDy=0;exitX=0.5;exitY=1;exitDx=0;exitDy=0;" edge="1" parent="WIyWlLk6GJQsqaUBKTNV-1" source="M7sf1WBETRBUM8MKy9Nu-4" target="M7sf1WBETRBUM8MKy9Nu-1">
          <mxGeometry x="-0.9392" y="1" width="50" height="50" relative="1" as="geometry">
            <mxPoint x="400" y="320" as="sourcePoint" />
            <mxPoint x="450" y="270" as="targetPoint" />
            <Array as="points">
              <mxPoint x="670" y="300" />
              <mxPoint x="400" y="300" />
            </Array>
            <mxPoint as="offset" />
          </mxGeometry>
        </mxCell>
        <mxCell id="M7sf1WBETRBUM8MKy9Nu-31" value="No" style="edgeStyle=orthogonalEdgeStyle;rounded=0;orthogonalLoop=1;jettySize=auto;html=1;entryX=1;entryY=0.5;entryDx=0;entryDy=0;" edge="1" parent="WIyWlLk6GJQsqaUBKTNV-1" source="M7sf1WBETRBUM8MKy9Nu-13" target="M7sf1WBETRBUM8MKy9Nu-30">
          <mxGeometry x="-0.5556" relative="1" as="geometry">
            <mxPoint as="offset" />
          </mxGeometry>
        </mxCell>
        <mxCell id="M7sf1WBETRBUM8MKy9Nu-33" value="Yes" style="edgeStyle=orthogonalEdgeStyle;rounded=0;orthogonalLoop=1;jettySize=auto;html=1;" edge="1" parent="WIyWlLk6GJQsqaUBKTNV-1" source="M7sf1WBETRBUM8MKy9Nu-13" target="M7sf1WBETRBUM8MKy9Nu-32">
          <mxGeometry x="0.2" relative="1" as="geometry">
            <mxPoint as="offset" />
          </mxGeometry>
        </mxCell>
        <mxCell id="M7sf1WBETRBUM8MKy9Nu-13" value="Collaborative development?" style="rhombus;whiteSpace=wrap;html=1;" vertex="1" parent="WIyWlLk6GJQsqaUBKTNV-1">
          <mxGeometry x="330" y="680" width="140" height="140" as="geometry" />
        </mxCell>
        <mxCell id="M7sf1WBETRBUM8MKy9Nu-14" value="&lt;div&gt;Charging a price&lt;/div&gt;" style="endArrow=none;html=1;rounded=0;" edge="1" parent="WIyWlLk6GJQsqaUBKTNV-1">
          <mxGeometry x="-0.84" width="50" height="50" relative="1" as="geometry">
            <mxPoint x="40" y="390" as="sourcePoint" />
            <mxPoint x="40" y="640" as="targetPoint" />
            <Array as="points">
              <mxPoint x="40" y="390" />
              <mxPoint x="40" y="640" />
            </Array>
            <mxPoint as="offset" />
          </mxGeometry>
        </mxCell>
        <mxCell id="M7sf1WBETRBUM8MKy9Nu-15" value="Charging a price&lt;br&gt;for&amp;nbsp; technical&lt;br&gt;support services" style="endArrow=none;html=1;rounded=0;" edge="1" parent="WIyWlLk6GJQsqaUBKTNV-1">
          <mxGeometry x="-0.6" width="50" height="50" relative="1" as="geometry">
            <mxPoint x="100" y="390" as="sourcePoint" />
            <mxPoint x="100" y="640" as="targetPoint" />
            <Array as="points">
              <mxPoint x="100" y="390" />
              <mxPoint x="100" y="640" />
            </Array>
            <mxPoint as="offset" />
          </mxGeometry>
        </mxCell>
        <mxCell id="M7sf1WBETRBUM8MKy9Nu-17" value="Softwware platform&lt;br&gt; to monetise&lt;br&gt;other services" style="endArrow=none;html=1;rounded=0;" edge="1" parent="WIyWlLk6GJQsqaUBKTNV-1">
          <mxGeometry x="0.2" width="50" height="50" relative="1" as="geometry">
            <mxPoint x="160" y="640" as="sourcePoint" />
            <mxPoint x="160" y="390" as="targetPoint" />
            <mxPoint as="offset" />
          </mxGeometry>
        </mxCell>
        <mxCell id="M7sf1WBETRBUM8MKy9Nu-18" value="Personal data&lt;br&gt;as a condition&lt;br&gt;for use" style="endArrow=none;html=1;rounded=0;" edge="1" parent="WIyWlLk6GJQsqaUBKTNV-1">
          <mxGeometry x="-0.2" width="50" height="50" relative="1" as="geometry">
            <mxPoint x="219" y="640" as="sourcePoint" />
            <mxPoint x="219" y="390" as="targetPoint" />
            <mxPoint as="offset" />
          </mxGeometry>
        </mxCell>
        <mxCell id="M7sf1WBETRBUM8MKy9Nu-19" value="&lt;div&gt;Accepting donations&lt;br&gt;exceeding costs&lt;/div&gt;" style="endArrow=none;html=1;rounded=0;" edge="1" parent="WIyWlLk6GJQsqaUBKTNV-1">
          <mxGeometry x="-0.52" width="50" height="50" relative="1" as="geometry">
            <mxPoint x="277" y="640" as="sourcePoint" />
            <mxPoint x="277" y="390" as="targetPoint" />
            <mxPoint as="offset" />
          </mxGeometry>
        </mxCell>
        <mxCell id="M7sf1WBETRBUM8MKy9Nu-20" value="Yes" style="endArrow=none;html=1;rounded=0;entryX=0;entryY=0.5;entryDx=0;entryDy=0;" edge="1" parent="WIyWlLk6GJQsqaUBKTNV-1" target="M7sf1WBETRBUM8MKy9Nu-1">
          <mxGeometry x="0.8621" width="50" height="50" relative="1" as="geometry">
            <mxPoint x="40" y="390" as="sourcePoint" />
            <mxPoint x="460" y="550" as="targetPoint" />
            <mxPoint as="offset" />
          </mxGeometry>
        </mxCell>
        <mxCell id="M7sf1WBETRBUM8MKy9Nu-21" value="" style="endArrow=classic;html=1;rounded=0;entryX=0.5;entryY=0;entryDx=0;entryDy=0;" edge="1" parent="WIyWlLk6GJQsqaUBKTNV-1" target="M7sf1WBETRBUM8MKy9Nu-13">
          <mxGeometry width="50" height="50" relative="1" as="geometry">
            <mxPoint x="40" y="640" as="sourcePoint" />
            <mxPoint x="460" y="550" as="targetPoint" />
            <Array as="points">
              <mxPoint x="400" y="640" />
            </Array>
          </mxGeometry>
        </mxCell>
        <mxCell id="M7sf1WBETRBUM8MKy9Nu-24" value="" style="endArrow=none;dashed=1;html=1;rounded=0;entryX=0;entryY=0.5;entryDx=0;entryDy=0;" edge="1" parent="WIyWlLk6GJQsqaUBKTNV-1" target="M7sf1WBETRBUM8MKy9Nu-1">
          <mxGeometry width="50" height="50" relative="1" as="geometry">
            <mxPoint x="330" y="640" as="sourcePoint" />
            <mxPoint x="320" y="390" as="targetPoint" />
          </mxGeometry>
        </mxCell>
        <mxCell id="M7sf1WBETRBUM8MKy9Nu-25" value="other" style="edgeLabel;html=1;align=center;verticalAlign=middle;resizable=0;points=[];" vertex="1" connectable="0" parent="M7sf1WBETRBUM8MKy9Nu-24">
          <mxGeometry x="-0.816" y="-2" relative="1" as="geometry">
            <mxPoint as="offset" />
          </mxGeometry>
        </mxCell>
        <mxCell id="M7sf1WBETRBUM8MKy9Nu-26" value="Outside CRA scope" style="rounded=0;whiteSpace=wrap;html=1;fillColor=#dae8fc;strokeColor=#6c8ebf;fontStyle=1" vertex="1" parent="WIyWlLk6GJQsqaUBKTNV-1">
          <mxGeometry x="660" y="720" width="120" height="60" as="geometry" />
        </mxCell>
        <mxCell id="M7sf1WBETRBUM8MKy9Nu-29" value="Yes" style="endArrow=none;html=1;rounded=0;" edge="1" parent="WIyWlLk6GJQsqaUBKTNV-1">
          <mxGeometry x="-0.6667" width="50" height="50" relative="1" as="geometry">
            <mxPoint x="740" y="200" as="sourcePoint" />
            <mxPoint x="800" y="200" as="targetPoint" />
            <mxPoint as="offset" />
          </mxGeometry>
        </mxCell>
        <mxCell id="M7sf1WBETRBUM8MKy9Nu-30" value="Manufacturer" style="rounded=0;whiteSpace=wrap;html=1;fillColor=#dae8fc;strokeColor=#6c8ebf;fontStyle=1" vertex="1" parent="WIyWlLk6GJQsqaUBKTNV-1">
          <mxGeometry x="120" y="720" width="120" height="60" as="geometry" />
        </mxCell>
        <mxCell id="M7sf1WBETRBUM8MKy9Nu-34" value="&lt;div&gt;Yes&lt;/div&gt;" style="edgeStyle=orthogonalEdgeStyle;rounded=0;orthogonalLoop=1;jettySize=auto;html=1;entryX=1;entryY=0.5;entryDx=0;entryDy=0;" edge="1" parent="WIyWlLk6GJQsqaUBKTNV-1" source="M7sf1WBETRBUM8MKy9Nu-32" target="M7sf1WBETRBUM8MKy9Nu-30">
          <mxGeometry x="-0.9333" relative="1" as="geometry">
            <mxPoint as="offset" />
          </mxGeometry>
        </mxCell>
        <mxCell id="M7sf1WBETRBUM8MKy9Nu-32" value="Single person&lt;br&gt;excercises control?" style="rhombus;whiteSpace=wrap;html=1;" vertex="1" parent="WIyWlLk6GJQsqaUBKTNV-1">
          <mxGeometry x="330" y="890" width="140" height="140" as="geometry" />
        </mxCell>
      </root>
    </mxGraphModel>
  </diagram>
</mxfile>
